name rise31.4854peak64.571fall78.6902.mot
datacolumns 19
datarows 11
range 6.74664100000000 6.76331100000000
endheader
time	ground_force1_vx	ground_force1_vy	ground_force1_vz	ground_force1_px	ground_force1_py	ground_force1_pz	ground_force2_vx	ground_force2_vy	ground_force2_vz	ground_force2_px	ground_force2_py	ground_force2_pz	ground_torque1_x	ground_torque1_y	ground_torque1_z	ground_torque2_x	ground_torque2_y	ground_torque2_z	
6.74664100000000	-51.59256200000000	827.88606800000002	57.24558100000000	0.11555000000000	0.00000000000000	0.09896700000000	-9.00243000000000	43.15260800000000	11.13318400000000	0.34411800000000	0.00000000000000	-0.07139000000000	0.00000000000000	22.75537900000000	0.00000000000000	0.00000000000000	6.81539300000000	0.00000000000000	
6.74830600000000	-51.69388600000000	825.89611700000000	57.00799700000000	0.11517000000000	0.00000000000000	0.09896200000000	-9.75496600000000	49.02381400000000	12.32182000000000	0.34940500000000	0.00000000000000	-0.07166700000000	0.00000000000000	22.64543500000000	0.00000000000000	0.00000000000000	7.65127300000000	0.00000000000000	
6.74997500000000	-51.80284800000000	823.78502000000003	56.74201200000000	0.11481400000000	0.00000000000000	0.09895200000000	-10.35913900000000	54.76002400000000	13.38985800000000	0.35444000000000	0.00000000000000	-0.07192800000000	0.00000000000000	22.53425000000000	0.00000000000000	0.00000000000000	8.43214000000000	0.00000000000000	
6.75164100000000	-51.92031300000000	821.55231000000003	56.44753900000000	0.11448000000000	0.00000000000000	0.09893800000000	-10.80188900000000	60.30084600000000	14.32024200000000	0.35923200000000	0.00000000000000	-0.07217700000000	0.00000000000000	22.42197400000000	0.00000000000000	0.00000000000000	9.14469300000000	0.00000000000000	
6.75330700000000	-52.04712500000000	819.19757000000004	56.12453600000000	0.11416900000000	0.00000000000000	0.09892000000000	-11.07839800000000	65.61154700000000	15.10443200000000	0.36378700000000	0.00000000000000	-0.07241800000000	0.00000000000000	22.30874800000000	0.00000000000000	0.00000000000000	9.78058200000000	0.00000000000000	
6.75497400000000	-52.18410400000000	816.72042999999996	55.77300800000000	0.11387800000000	0.00000000000000	0.09889700000000	-11.19137800000000	70.68215300000000	15.74183500000000	0.36811400000000	0.00000000000000	-0.07265300000000	0.00000000000000	22.19470500000000	0.00000000000000	0.00000000000000	10.33631000000000	0.00000000000000	
6.75664300000000	-52.33203700000000	814.12055999999995	55.39300200000000	0.11360700000000	0.00000000000000	0.09887000000000	-11.14984100000000	75.52466099999999	16.23868200000000	0.37221800000000	0.00000000000000	-0.07288500000000	0.00000000000000	22.07996700000000	0.00000000000000	0.00000000000000	10.81275200000000	0.00000000000000	
6.75831100000000	-52.49167700000000	811.39766299999997	54.98461200000000	0.11335500000000	0.00000000000000	0.09884000000000	-10.96757500000000	80.16892900000001	16.60652900000000	0.37610400000000	0.00000000000000	-0.07311600000000	0.00000000000000	21.96464700000000	0.00000000000000	0.00000000000000	11.21439100000000	0.00000000000000	
6.75997700000000	-52.66373300000000	808.55147499999998	54.54797500000000	0.11311900000000	0.00000000000000	0.09880500000000	-10.66148800000000	84.65780300000000	16.86059100000000	0.37977800000000	0.00000000000000	-0.07334700000000	0.00000000000000	21.84884600000000	0.00000000000000	0.00000000000000	11.54838100000000	0.00000000000000	
6.76164300000000	-52.84886700000000	805.58175300000005	54.08327300000000	0.11289900000000	0.00000000000000	0.09876600000000	-10.24997300000000	89.04202700000000	17.01805600000000	0.38324500000000	0.00000000000000	-0.07358000000000	0.00000000000000	21.73265600000000	0.00000000000000	0.00000000000000	11.82354400000000	0.00000000000000	
6.76331100000000	-53.04768600000000	802.48827600000004	53.59073000000000	0.11269200000000	0.00000000000000	0.09872200000000	-9.75144600000000	93.37537900000000	17.09653300000000	0.38650900000000	0.00000000000000	-0.07381600000000	0.00000000000000	21.61615800000000	0.00000000000000	0.00000000000000	12.04940100000000	0.00000000000000	
